HIERARCHY
ROOT Hips
{
	OFFSET 0.000000 0.000000 0.000000
	CHANNELS 6 Xposition Yposition Zposition Zrotation Yrotation Xrotation 
	JOINT LHipJoint
	{
		OFFSET 0.000000 0.000000 0.000000
		CHANNELS 3 Zrotation Yrotation Xrotation
		JOINT LeftUpLeg
		{
			OFFSET 1.363060 -1.794630 0.839290
			CHANNELS 3 Zrotation Yrotation Xrotation
			JOINT LeftLeg
			{
				OFFSET 2.448110 -6.726130 0.000000
				CHANNELS 3 Zrotation Yrotation Xrotation
				JOINT LeftFoot
				{
					OFFSET 2.562200 -7.039590 0.000000
					CHANNELS 3 Zrotation Yrotation Xrotation
					JOINT LeftToeBase
					{
						OFFSET 0.157640 -0.433110 2.322550
						CHANNELS 3 Zrotation Yrotation Xrotation
						End Site
						{
							OFFSET 0.000000 0.000000 0.000000
						}
					}
				}
			}
		}
	}
	JOINT RHipJoint
	{
		OFFSET 0.000000 0.000000 0.000000
		CHANNELS 3 Zrotation Yrotation Xrotation
		JOINT RightUpLeg
		{
			OFFSET -1.305520 -1.794630 0.839290
			CHANNELS 3 Zrotation Yrotation Xrotation
			JOINT RightLeg
			{
				OFFSET -2.542530 -6.985550 0.000000
				CHANNELS 3 Zrotation Yrotation Xrotation
				JOINT RightFoot
				{
					OFFSET -2.568260 -7.056230 0.000000
					CHANNELS 3 Zrotation Yrotation Xrotation
					JOINT RightToeBase
					{
						OFFSET -0.164730 -0.452590 2.363150
						CHANNELS 3 Zrotation Yrotation Xrotation
						End Site
						{
							OFFSET 0.000000 0.000000 0.000000
						}
					}
				}
			}
		}
	}
	JOINT LowerBack
	{
		OFFSET 0.000000 0.000000 0.000000
		CHANNELS 3 Zrotation Yrotation Xrotation
		JOINT Spine
		{
			OFFSET 0.028270 2.035590 -0.193380
			CHANNELS 3 Zrotation Yrotation Xrotation
			JOINT Spine1
			{
				OFFSET 0.056720 2.048850 -0.042750
				CHANNELS 3 Zrotation Yrotation Xrotation
				JOINT Neck
				{
					OFFSET 0.000000 0.000000 0.000000
					CHANNELS 3 Zrotation Yrotation Xrotation
					JOINT Neck1
					{
						OFFSET -0.054170 1.746240 0.172020
						CHANNELS 3 Zrotation Yrotation Xrotation
						JOINT Head
						{
							OFFSET 0.104070 1.761360 -0.123970
							CHANNELS 3 Zrotation Yrotation Xrotation
							End Site
							{
								OFFSET 0.000000 0.000000 0.000000
							}
						}
					}
				}
				JOINT LeftShoulder
				{
					OFFSET 0.000000 0.000000 0.000000
					CHANNELS 3 Zrotation Yrotation Xrotation
					JOINT LeftArm
					{
						OFFSET 3.362410 1.200890 -0.311210
						CHANNELS 3 Zrotation Yrotation Xrotation
						JOINT LeftForeArm
						{
							OFFSET 4.983000 -0.000000 -0.000000
							CHANNELS 3 Zrotation Yrotation Xrotation
							JOINT LeftHand
							{
								OFFSET 3.483560 -0.000000 -0.000000
								CHANNELS 3 Zrotation Yrotation Xrotation
								JOINT LeftFingerBase
								{
									OFFSET 0.000000 0.000000 0.000000
									CHANNELS 3 Zrotation Yrotation Xrotation
									JOINT LeftHandIndex1
									{
										OFFSET 0.715260 -0.000000 -0.000000
										CHANNELS 3 Zrotation Yrotation Xrotation
										End Site
										{
											OFFSET 0.000000 0.000000 0.000000
										}
									}
								}
								JOINT LThumb
								{
									OFFSET 0.000000 0.000000 0.000000
									CHANNELS 3 Zrotation Yrotation Xrotation
									End Site
									{
										OFFSET 0.000000 0.000000 0.000000
									}
								}
							}
						}
					}
				}
				JOINT RightShoulder
				{
					OFFSET 0.000000 0.000000 0.000000
					CHANNELS 3 Zrotation Yrotation Xrotation
					JOINT RightArm
					{
						OFFSET -3.136600 1.374050 -0.404650
						CHANNELS 3 Zrotation Yrotation Xrotation
						JOINT RightForeArm
						{
							OFFSET -5.241900 -0.000000 -0.000000
							CHANNELS 3 Zrotation Yrotation Xrotation
							JOINT RightHand
							{
								OFFSET -3.444170 -0.000000 -0.000000
								CHANNELS 3 Zrotation Yrotation Xrotation
								JOINT RightFingerBase
								{
									OFFSET 0.000000 0.000000 0.000000
									CHANNELS 3 Zrotation Yrotation Xrotation
									JOINT RightHandIndex1
									{
										OFFSET -0.622530 -0.000000 -0.000000
										CHANNELS 3 Zrotation Yrotation Xrotation
										End Site
										{
											OFFSET 0.000000 0.000000 0.000000
										}
									}
								}
								JOINT RThumb
								{
									OFFSET 0.000000 0.000000 0.000000
									CHANNELS 3 Zrotation Yrotation Xrotation
									End Site
									{
										OFFSET 0.000000 0.000000 0.000000
									}
								}
							}
						}
					}
				}
			}
		}
	}
}
MOTION
Frames: 4
Frame Time: 0.008333
23.501988 14.994438 2.473412 -136.671193 -78.928317 171.402470 -8.098573 -1.151858 2.529290 -7.355144 0.350726 -90.553593 -1.211431 4.888085 49.883805 1.292599 4.897030 -0.224369 1.320500 -0.000000 -25.801700 10.760187 -2.508935 -2.692132 10.672889 -2.728089 -9.344146 1.290547 -1.819316 35.985703 0.369085 4.880136 0.201107 0.444200 -0.000000 -86.604500 -9.565348 1.419084 2.361293 -3.062602 1.837852 -2.747740 -6.230020 1.823768 -0.365739 9.995548 -11.278631 -10.598467 -0.873184 0.012770 -1.207296 0.000000 0.000000 0.000000 7.289795 18.203957 2.609598 -65.556881 32.602426 22.638496 -0.279903 -86.581758 0.013174 -7.834390 1.923346 -0.128877 0.115913 0.075085 -0.000000 0.000000 0.000000 0.000000 0.000000 0.000000 0.000000 3.023270 -3.385089 0.255871 73.274097 9.429183 35.076936 179.094758 76.369384 -179.976018 3.057889 1.650237 0.057534 -0.046059 -0.447210 -0.000000 0.000000 0.000000 0.000000 0.000000 0.000000 0.000000 
23.294637 14.979861 2.484533 -136.061078 -79.126262 170.815369 -8.065424 -1.088188 2.385566 -7.757239 0.308942 -90.760083 -1.099000 5.074524 51.762530 1.225415 4.495867 -0.943911 1.149900 -0.000000 -24.453601 10.977078 -2.517222 -2.791005 10.468796 -3.561859 -10.471306 0.909491 -2.008395 38.330636 0.265602 4.255604 3.309528 0.589600 -0.000000 -87.612400 -9.814504 1.333863 2.583376 -3.138980 1.755985 -2.719594 -6.310229 1.742784 -0.477832 9.967719 -10.990817 -10.516741 -0.965593 0.004739 -1.199326 0.000000 0.000000 0.000000 7.123983 17.643602 2.724547 -65.876399 31.642098 21.696731 -0.336372 -85.523793 0.013216 -7.539747 1.889817 -0.121286 0.106254 0.079892 -0.000000 0.000000 0.000000 0.000000 0.000000 0.000000 0.000000 3.335568 -3.098655 0.242385 74.010195 9.250643 34.572064 179.168899 77.076555 -179.978355 2.726421 1.590682 0.050061 -0.041980 -0.447855 -0.000000 0.000000 0.000000 0.000000 0.000000 0.000000 0.000000 
23.092095 14.967532 2.495604 -135.420028 -79.375396 170.193867 -8.027371 -1.028550 2.244050 -8.153180 0.201808 -90.829470 -1.003285 5.229036 53.494489 1.182063 4.162576 -1.963591 0.978100 -0.000001 -23.100500 11.191079 -2.485759 -2.911228 10.301794 -4.413844 -11.698264 0.521732 -2.176716 40.788358 0.102834 3.439307 6.556914 0.672000 -0.000000 -87.578199 -10.055448 1.237085 2.840144 -3.212518 1.661001 -2.684079 -6.384395 1.648849 -0.599796 9.905849 -10.675507 -10.394146 -1.062732 -0.004335 -1.180130 0.000000 0.000000 0.000000 6.956782 17.003099 2.832988 -66.170650 30.636249 20.740288 -0.393221 -84.454950 0.013274 -7.256372 1.856557 -0.114096 0.097025 0.084964 -0.000000 0.000000 0.000000 0.000000 0.000000 0.000000 0.000000 3.642954 -2.804846 0.222992 74.763210 9.072531 34.015428 179.253443 77.910065 -179.981593 2.272510 1.561276 0.041293 -0.035454 -0.448750 -0.000000 0.000000 0.000000 0.000000 0.000000 0.000000 0.000000 
22.894472 14.957174 2.506599 -134.742291 -79.663896 169.542439 -7.987179 -0.975869 2.108701 -8.524936 0.036658 -90.781304 -0.921591 5.353974 55.082396 1.162571 3.906502 -3.202800 0.812500 0.000000 -21.799600 11.395029 -2.412299 -3.044518 10.180587 -5.242122 -13.014932 0.148934 -2.319923 43.334200 -0.112285 2.465062 9.822403 0.656500 0.000000 -86.359400 -10.285597 1.130875 3.117339 -3.282749 1.554786 -2.642988 -6.452640 1.543764 -0.725754 9.812210 -10.338981 -10.234133 -1.163113 -0.014272 -1.150284 0.000000 0.000000 0.000000 6.784089 16.301624 2.932139 -66.418168 29.580534 19.793602 -0.450116 -83.386024 0.013365 -6.992998 1.825461 -0.107613 0.088299 0.090195 -0.000000 0.000000 0.000000 0.000000 0.000000 0.000000 0.000000 3.944984 -2.512065 0.198440 75.526673 8.902072 33.414247 179.344665 78.865740 -179.985530 1.729423 1.571887 0.031826 -0.027408 -0.449929 -0.000000 0.000000 0.000000 0.000000 0.000000 0.000000 0.000000 
